<svg width="20" height="22" viewBox="0 0 20 22" fill="none" xmlns="http://www.w3.org/2000/svg">
<g clip-path="url(#clip0_4_2012)">
<mask id="mask0_4_2012" style="mask-type:luminance" maskUnits="userSpaceOnUse" x="0" y="0" width="20" height="22">
<path d="M20 0.5H0V21.5H20V0.5Z" fill="white"/>
</mask>
<g mask="url(#mask0_4_2012)">
<path d="M11.9286 13.025C10.3571 14.7275 10.2429 16.85 10.1071 21.5C14.2357 21.5 17.0857 21.485 18.5571 19.985C19.9857 18.44 20 15.305 20 11.1125C15.5714 11.2625 13.55 11.375 11.9286 13.025ZM0 11.1125C0 15.305 0.0142857 18.44 1.44286 19.985C2.91429 21.485 5.76429 21.5 9.89286 21.5C9.75 16.85 9.64286 14.7275 8.07143 13.025C6.45 11.375 4.42857 11.255 0 11.1125ZM9.89286 0.5C5.77143 0.5 2.91429 0.515 1.44286 2.015C0.0142857 3.56 0 6.695 0 10.8875C4.42857 10.7375 6.45 10.625 8.07143 8.975C9.64286 7.2725 9.75714 5.15 9.89286 0.5ZM11.9286 8.975C10.3571 7.2725 10.2429 5.15 10.1071 0.5C14.2357 0.5 17.0857 0.515 18.5571 2.015C19.9857 3.56 20 6.695 20 10.8875C15.5714 10.7375 13.55 10.625 11.9286 8.975Z" fill="white"/>
<path d="M20 11.1125V10.8875C15.5714 10.7375 13.55 10.625 11.9286 8.975C10.3571 7.2725 10.2429 5.15 10.1071 0.5H9.89286C9.75 5.15 9.64286 7.2725 8.07143 8.975C6.45 10.625 4.42857 10.745 0 10.8875V11.1125C4.42857 11.2625 6.45 11.375 8.07143 13.025C9.64286 14.7275 9.75714 16.85 9.89286 21.5H10.1071C10.25 16.85 10.3571 14.7275 11.9286 13.025C13.55 11.375 15.5714 11.255 20 11.1125Z" fill="#010101"/>
</g>
</g>
<defs>
<clipPath id="clip0_4_2012">
<rect width="20" height="21" fill="white" transform="translate(0 0.5)"/>
</clipPath>
</defs>
</svg>
