<svg width="32" height="20" viewBox="0 0 32 20" fill="none" xmlns="http://www.w3.org/2000/svg">
<path fill-rule="evenodd" clip-rule="evenodd" d="M30.4542 1.42698C30.6666 0.653485 30.4542 0.0839844 29.4372 0.0839844H26.0792C25.2247 0.0839844 24.8307 0.575556 24.617 1.11813C24.617 1.11813 22.9093 5.64584 20.4902 8.58684C19.7073 9.43963 19.3517 9.71027 18.9244 9.71027C18.7108 9.71027 18.3897 9.43963 18.3897 8.66477V1.42698C18.3897 0.497629 18.1543 0.0839844 17.4431 0.0839844H12.1624C11.6289 0.0839844 11.3078 0.514628 11.3078 0.924057C11.3078 1.80384 12.518 2.00784 12.6421 4.48413V9.86463C12.6421 11.0448 12.4464 11.2586 12.0191 11.2586C10.8806 11.2586 8.11105 6.70977 6.46721 1.50491C6.14865 0.491984 5.82628 0.0839844 4.96792 0.0839844H1.60737C0.647941 0.0839844 0.456055 0.575556 0.456055 1.11813C0.456055 2.08434 1.59458 6.88398 5.75849 13.2321C8.53442 17.5671 12.4425 19.9173 16.0026 19.9173C18.1377 19.9173 18.4012 19.396 18.4012 18.4964V15.2196C18.4012 14.1756 18.6034 13.9673 19.28 13.9673C19.7789 13.9673 20.6322 14.2393 22.6253 16.3289C24.9023 18.8066 25.2771 19.9173 26.5589 19.9173H29.917C30.8764 19.9173 31.3574 19.396 31.0811 18.3646C30.7766 17.339 29.6892 15.8501 28.2475 14.0835C27.4646 13.0776 26.2903 11.9939 25.9334 11.4513C25.4357 10.7558 25.5778 10.4455 25.9334 9.82641C25.9334 9.82641 30.0269 3.55627 30.453 1.42698H30.4542Z" fill="#855BFC"/>
</svg>
