<svg width="27" height="22" viewBox="0 0 27 22" fill="none" xmlns="http://www.w3.org/2000/svg">
<g clip-path="url(#clip0_4_2038)">
<path d="M26.4365 3.78041C26.2828 3.14519 25.9814 2.56591 25.5626 2.10053C25.1437 1.63516 24.6221 1.30002 24.0499 1.12866C21.9435 0.5 13.5 0.5 13.5 0.5C13.5 0.5 5.05647 0.5 2.95011 1.12532C2.37763 1.29612 1.85572 1.63107 1.4368 2.09654C1.01788 2.56199 0.716702 3.14157 0.563505 3.77707C-1.14952e-07 6.11783 0 11 0 11C0 11 -1.14952e-07 15.8822 0.563505 18.2196C0.873884 19.5104 1.78996 20.5269 2.95011 20.8713C5.05647 21.5 13.5 21.5 13.5 21.5C13.5 21.5 21.9435 21.5 24.0499 20.8713C25.2131 20.5269 26.1261 19.5104 26.4365 18.2196C27 15.8822 27 11 27 11C27 11 27 6.11783 26.4365 3.78041ZM10.8181 15.4809V6.51911L17.8092 10.9666L10.8181 15.4809Z" fill="#855BFC"/>
</g>
<defs>
<clipPath id="clip0_4_2038">
<rect width="27" height="21" fill="white" transform="translate(0 0.5)"/>
</clipPath>
</defs>
</svg>
